# AST/ASF file generated using VICON BodyLanguage
# -----------------------------------------------
:version 1.10
:name VICON
:units
  mass 1.0
  length 0.45
  angle deg
:documentation
   .ast/.asf automatically generated from VICON data using
   VICON BodyBuilder and BodyLanguage model FoxedUp or BRILLIANT.MOD
:root
   order TX TY TZ RX RY RZ
   axis XYZ
   position 0 0 0  
   orientation 0 0 0 
:bonedata
  begin
     id 1 
     name lhipjoint
     direction 0.577973 -0.728611 0.367523 
     length 2.48544 
     axis 0 0 0  XYZ
  end
  begin
     id 2 
     name lfemur
     direction 0.34202 -0.939693 0  
     length 7.1921  
     axis 0 0 20  XYZ
    dof rx ry rz
    limits (-160.0 20.0)
           (-70.0 70.0)
           (-60.0 70.0)
  end
  begin
     id 3 
     name ltibia
     direction 0.34202 -0.939693 0   
     length 7.71059   
     axis 0 0 20   XYZ
    dof rx
    limits (-10.0 170.0)
  end
  begin
     id 4 
     name lfoot
     direction 0.089538 -0.246004 0.965124   
     length 2.19909   
     axis -90 7.62852e-016 20   XYZ
    dof rx rz
    limits (-45.0 90.0)
           (-70.0 20.0)
  end
  begin
     id 5 
     name ltoes
     direction 1.53544e-011 -4.21829e-011 1   
     length 1.10116   
     axis -90 7.62852e-016 20   XYZ
    dof rx
    limits (-90.0 20.0)
  end
  begin
     id 6 
     name rhipjoint
     direction -0.554414 -0.743062 0.374812   
     length 2.4371  
     axis 0 0 0  XYZ 
  end
  begin
     id 7 
     name rfemur
     direction -0.34202 -0.939693 0   
     length 7.47254   
     axis 0 0 -20   XYZ
    dof rx ry rz
    limits (-160.0 20.0)
           (-70.0 70.0)
           (-70.0 60.0)
  end
  begin
     id 8 
     name rtibia
     direction -0.34202 -0.939693 0   
     length 7.65855   
     axis 0 0 -20   XYZ
    dof rx
    limits (-10.0 170.0)
 end
 begin
     id 9 
     name rfoot
     direction -0.133779 -0.367555 0.92033   
     length 2.43006  
     axis -90 -7.62852e-016 -20   XYZ
    dof rx rz
    limits (-45.0 90.0)
           (-20.0 70.0)
  end
  begin
     id 10 
     name rtoes
     direction -1.53563e-011 -4.21889e-011 1   
     length 1.19625   
     axis -90 -7.62852e-016 -20   XYZ
    dof rx
    limits (-90.0 20.0)
  end
  begin
     id 11 
     name lowerback
     direction 0.0249066 0.998043 -0.0573585   
     length 2.08485   
     axis 0 0 0   XYZ
    dof rx ry rz
    limits (-20.0 45.0)
           (-30.0 30.0)
           (-30.0 30.0)
  end
  begin
     id 12 
     name upperback
     direction 0.0237884 0.999673 0.00943178   
     length 2.08515   
     axis 0 0 0   XYZ
    dof rx ry rz
    limits (-20.0 45.0)
           (-30.0 30.0)
           (-30.0 30.0)
  end
  begin
     id 13 
     name thorax
     direction 0.0106671 0.999301 0.0358174   
     length 2.09037   
     axis 0 0 0   XYZ
    dof rx ry rz
    limits (-20.0 45.0)
           (-30.0 30.0)
           (-30.0 30.0)
  end
  begin
     id 14 
     name lowerneck
     direction -0.0580016 0.987052 0.149546   
     length 1.84454   
     axis 0 0 0   XYZ
    dof rx ry rz
    limits (-20.0 45.0)
           (-30.0 30.0)
           (-30.0 30.0)
  end
  begin
     id 15 
     name upperneck
     direction 0.079456 0.981963 -0.171567   
     length 1.88141   
     axis 0 0 0   XYZ
    dof rx ry rz
    limits (-20.0 45.0)
           (-30.0 30.0)
           (-30.0 30.0)
  end
  begin
     id 16
     name head
     direction 0.0262167 0.9967 -0.0768276  
     length 1.89541  
     axis 0 0 0   XYZ
    dof rx ry rz
    limits (-20.0 45.0)
           (-30.0 30.0)
           (-30.0 30.0)
  end
  begin
     id 17 
     name lclavicle
     direction 0.946135 0.322134 -0.0325326  
     length 3.949  
     axis 0 0 0   XYZ
    dof ry rz
    limits (-20.0 10.0)
           (0.0 20.0)
  end
  begin
     id 18 
     name lhumerus
     direction 1 -4.48964e-011 1.94005e-028   
     length 5.10995   
     axis 180 -30 -90   XYZ
    dof rx ry rz
    limits (-60.0 90.0)
           (-90.0 90.0)
           (-90.0 90.0)
  end
  begin
     id 19
     name lradius
     direction 1 -4.48976e-011 2.87852e-027   
     length 3.21207   
     axis 180 -30 -90   XYZ
    dof rx
    limits (-10.0 170.0)
  end
  begin
     id 20
     name lwrist
     direction 1 -4.48963e-011 1.9975e-027   
     length 1.60604   
     axis 2.96054e-016 90 90   XYZ
    dof ry
    limits (-180.0 0.0)
 end
  begin
     id 21 
     name lhand
     direction 1 -4.48919e-011 4.00227e-027   
     length 0.63349   
     axis -2.5488e-015 90 90   XYZ
    dof rx rz
    limits (-90.0 90.0)
           (-45.0 45.0)
  end
  begin
     id 22 
     name lfingers
     direction 1 -4.49037e-011 7.9652e-027   
     length 0.510736   
     axis -5.0975e-015 90 90   XYZ
    dof rx
    limits (0.0 90.0)
  end
  begin
     id 23
     name lthumb
     direction 0.707107 -6.34922e-011 0.707107   
     length 0.733318   
     axis -90 45 -4.48553e-014   XYZ
    dof rx rz
    limits (-45.0 45.0)
           (-45.0 45.0)
  end
  begin
     id 24 
     name rclavicle
     direction -0.940085 0.328911 -0.0897654   
     length 3.93848  
     axis 0 0 0   XYZ 
    dof ry rz
    limits (-10.0 20.0)
           (-20.0 0.0)
  end
  begin
     id 25 
     name rhumerus
     direction -1 -4.48958e-011 3.02044e-027  
     length 5.25109   
     axis 180 30 90   XYZ
    dof rx ry rz
    limits (-90.0 60.0)
           (-90.0 90.0)
           (-90.0 90.0)
  end
  begin
     id 26 
     name rradius
     direction -1 -4.4897e-011 9.78352e-028   
     length 3.28364   
     axis 180 30 90   XYZ
    dof rx
    limits (-10.0 170.0)
  end
  begin
     id 27 
     name rwrist
     direction -1 -4.48943e-011 1.99918e-027   
     length 1.64182   
     axis 2.96054e-016 -90 -90   XYZ
    dof ry
    limits (-180.0 0.0)
  end
  begin
     id 28
     name rhand
     direction -1 -4.49024e-011 3.98478e-027   
     length 0.599745   
     axis -2.5488e-015 -90 -90   XYZ
    dof rx rz
    limits (-90.0 90.0)
           (-45.0 45.0)
  end
  begin
     id 29
     name rfingers
     direction -1 -4.48914e-011 8.00621e-027   
     length 0.48353   
     axis -5.0975e-015 -90 -90   XYZ
    dof rx
    limits (0.0 90.0)
  end
  begin
     id 30
     name rthumb
     direction -0.707107 -6.34992e-011 0.707107   
     length 0.694255   
     axis -90 -45 4.48553e-014   XYZ
    dof rx rz
    limits (-45.0 45.0)
           (-45.0 45.0)
  end
:hierarchy
  begin
    root lhipjoint rhipjoint lowerback
    lhipjoint lfemur
    lfemur ltibia
    ltibia lfoot
    lfoot ltoes
    rhipjoint rfemur
    rfemur rtibia
    rtibia rfoot
    rfoot rtoes
    lowerback upperback
    upperback thorax
    thorax lowerneck lclavicle rclavicle
    lowerneck upperneck
    upperneck head
    lclavicle lhumerus
    lhumerus lradius
    lradius lwrist
    lwrist lhand lthumb
    lhand lfingers
    rclavicle rhumerus
    rhumerus rradius
    rradius rwrist
    rwrist rhand rthumb
    rhand rfingers
  end

#!OML:ASF E:\CV Data\Top Level 1\Subject 1\Session 1\player.ASF
:FULLY-SPECIFIED
:DEGREES
395
root 3.03849 22.2933 -13.0956 -10.1949 63.53 -9.55785
lowerback 8.14925 -3.53376 -0.648464
upperback -5.8275 -4.66361 1.45652
thorax -10.6462 -2.1149 2.7218
lowerneck -1.29495 -13.1274 -22.0054
upperneck -4.88467 -17.16 16.6955
head 2.13981 -8.3623 7.68899
rclavicle 1.60767e-014 -1.39149e-015
rhumerus 85.644 -19.2634 -58.5257
rradius 69.561
rwrist 1.10155
rhand -44.9086 6.95927
rfingers 7.12502
rthumb -17.6957 -22.2555
lclavicle 1.60767e-014 -1.39149e-015
lhumerus 101.464 2.22446 54.4862
lradius 30.8014
lwrist 42.5471
lhand -12.0869 21.6974
lfingers 7.12502
lthumb 13.9732 51.2078
rfemur -11.099 4.06352 22.3059
rtibia 30.8838
rfoot 26.674 -8.3322
rtoes 10.9785
lfemur -8.37478 -2.92941 -8.85625
ltibia 28.4622
lfoot 25.0438 -3.99477
ltoes 16.8268
396
root 3.00035 22.4748 -12.9851 -11.0687 64.0243 -10.2728
lowerback 8.27364 -3.48392 -0.571512
upperback -5.79062 -4.58505 1.47378
thorax -10.6877 -2.08085 2.69221
lowerneck -1.13108 -13.217 -22.2
upperneck -4.94696 -17.3129 16.8365
head 2.15496 -8.44165 7.75201
rclavicle 5.88403e-014 5.56597e-015
rhumerus 86.9355 -19.7547 -58.0999
rradius 66.8439
rwrist 2.87487
rhand -46.2583 10.3359
rfingers 7.12502
rthumb -18.9941 -18.7567
lclavicle 5.88403e-014 5.56597e-015
lhumerus 101.806 2.36919 54.172
lradius 30.2866
lwrist 41.6175
lhand -14.3666 22.6505
lfingers 7.12502
lthumb 11.7756 52.2994
rfemur -10.9095 3.67309 22.9264
rtibia 31.025
rfoot 25.8675 -9.4298
rtoes 11.9902
lfemur -8.16658 -2.58188 -8.99892
ltibia 28.8404
lfoot 24.0763 -3.98734
ltoes 17.2551
397
root 2.96624 22.6441 -12.8711 -11.9133 64.5492 -11.0285
lowerback 8.23586 -3.45353 -0.507534
upperback -5.7693 -4.53056 1.51838
thorax -10.6449 -2.05825 2.69119
lowerneck -0.996814 -13.3264 -22.413
upperneck -5.0065 -17.4857 16.917
head 2.17423 -8.52856 7.79393
rclavicle 9.88954e-015 2.48481e-014
rhumerus 88.2485 -20.1522 -57.6805
rradius 63.806
rwrist 4.801
rhand -47.5882 13.6885
rfingers 7.12502
rthumb -20.2727 -15.2735
lclavicle 9.88954e-015 2.48481e-014
lhumerus 101.908 2.53844 53.7872
lradius 29.9703
lwrist 41.0378
lhand -16.5813 23.7055
lfingers 7.12502
lthumb 9.63935 53.4649
rfemur -10.7482 3.42108 23.5184
rtibia 31.0194
rfoot 24.9472 -10.3072
rtoes 12.756
lfemur -8.01895 -2.19832 -9.09415
ltibia 29.153
lfoot 22.9493 -3.82163
ltoes 17.7425
398
root 2.93517 22.8013 -12.7548 -12.698 65.1067 -11.7933
lowerback 8.06804 -3.44738 -0.440858
upperback -5.77657 -4.50821 1.55746
thorax -10.5552 -2.05246 2.67967
lowerneck -0.898873 -13.4396 -22.646
upperneck -5.01886 -17.6598 16.9895
head 2.21451 -8.61502 7.83127
rclavicle -2.3556e-014 7.55382e-015
rhumerus 89.5811 -20.4588 -57.3346
rradius 60.4594
rwrist 6.93084
rhand -48.8406 16.9326
rfingers 7.12502
rthumb -21.4759 -11.897
lclavicle -2.3556e-014 7.55382e-015
lhumerus 101.795 2.7045 53.3566
lradius 29.8222
lwrist 40.7919
lhand -18.5715 24.7546
lfingers 7.12502
lthumb 7.71878 54.5938
rfemur -10.6384 3.32768 24.0653
rtibia 30.9092
rfoot 23.9731 -10.8721
rtoes 13.1591
lfemur -7.94025 -1.81741 -9.16284
ltibia 29.4032
lfoot 21.6647 -3.52899
ltoes 18.2248
399
root 2.90607 22.9462 -12.6371 -13.4368 65.6947 -12.566
lowerback 7.80489 -3.4567 -0.356424
upperback -5.81142 -4.50714 1.56518
thorax -10.4424 -2.05986 2.62246
lowerneck -0.827914 -13.5585 -22.8506
upperneck -4.96945 -17.8417 17.0469
head 2.27503 -8.7057 7.85442
rclavicle -8.44835e-015 5.96354e-015
rhumerus 90.9662 -20.7087 -57.1061
rradius 56.8004
rwrist 9.31494
rhand -49.9304 19.7235
rfingers 7.12502
rthumb -22.5223 -8.98296
lclavicle -8.44835e-015 5.96354e-015
lhumerus 101.52 2.82243 52.9127
lradius 29.8113
lwrist 40.8447
lhand -20.2645 25.6715
lfingers 7.12502
lthumb 6.08446 55.5641
rfemur -10.5818 3.35733 24.5632
rtibia 30.7367
rfoot 22.9769 -11.1224
rtoes 13.1921
lfemur -7.91877 -1.46989 -9.21118
ltibia 29.5973
lfoot 20.2448 -3.17161
ltoes 18.6381
400
root 2.87839 23.0795 -12.5184 -14.1367 66.3172 -13.3341
lowerback 7.47411 -3.48249 -0.254147
upperback -5.86227 -4.53016 1.53123
thorax -10.311 -2.0822 2.51044
lowerneck -0.817349 -13.6684 -23.0284
upperneck -4.82693 -18.0076 17.1343
head 2.37134 -8.78846 7.87712
rclavicle 6.16232e-014 9.74045e-015
rhumerus 92.4304 -20.9043 -57.0288
rradius 52.8532
rwrist 11.8666
rhand -50.7067 21.9265
rfingers 7.12502
rthumb -23.2672 -6.68776
lclavicle 6.16232e-014 9.74045e-015
lhumerus 101.129 2.89842 52.4768
lradius 29.9074
lwrist 41.157
lhand -21.6251 26.3473
lfingers 7.12502
lthumb 4.7708 56.2736
rfemur -10.5662 3.48537 25.003
rtibia 30.5385
rfoot 21.9632 -11.1589
rtoes 12.9434
lfemur -7.93786 -1.1795 -9.25337
ltibia 29.7442
lfoot 18.7232 -2.82013
ltoes 18.8608
